<?xml version="1.0" encoding="UTF-8"?>
<svg width="500" height="94" viewBox="0 0 500 94" fill="none" xmlns="http://www.w3.org/2000/svg">
  <path d="M42.2 47.1C42.2 32.3 53.4 20.5 67.4 20.5C81.4 20.5 92.6 32.3 92.6 47.1C92.6 61.9 81.4 73.7 67.4 73.7C53.4 73.7 42.2 61.9 42.2 47.1Z" fill="#FF007A"/>
  <path d="M167.4 47.1C167.4 32.3 178.6 20.5 192.6 20.5C206.6 20.5 217.8 32.3 217.8 47.1C217.8 61.9 206.6 73.7 192.6 73.7C178.6 73.7 167.4 61.9 167.4 47.1Z" fill="#FF007A"/>
  <path d="M104.8 47.1C104.8 40.2 110.2 34.6 116.8 34.6C123.4 34.6 128.8 40.2 128.8 47.1C128.8 54 123.4 59.6 116.8 59.6C110.2 59.6 104.8 54 104.8 47.1Z" fill="#FF007A"/>
</svg>
